<?xml version="1.0" standalone="no"?>
<!DOCTYPE svg PUBLIC "-//W3C//DTD SVG 20010904//EN"
 "http://www.w3.org/TR/2001/REC-SVG-20010904/DTD/svg10.dtd">
<svg version="1.0" xmlns="http://www.w3.org/2000/svg"
 width="800.000000pt" height="800.000000pt" viewBox="0 0 800.000000 800.000000"
 preserveAspectRatio="xMidYMid meet">
<metadata>
Created by potrace 1.14, written by Peter Selinger 2001-2017
</metadata>
<g transform="translate(0.000000,800.000000) scale(0.100000,-0.100000)"
fill="#000000" stroke="none">
<path d="M3908 7935 c-1 -1 -23 -5 -48 -9 -25 -3 -52 -7 -60 -9 -81 -19 -204
-60 -250 -84 -33 -17 -38 -16 -45 7 -7 23 -15 22 -101 -11 -49 -19 -64 -36
-78 -84 -5 -18 -4 -17 10 3 17 23 39 29 48 13 4 -5 -15 -23 -42 -39 -26 -16
-55 -37 -65 -46 -16 -16 -17 -16 -17 7 0 14 14 51 30 83 l30 59 -30 -35 c-38
-45 -80 -128 -85 -171 -9 -65 12 -107 89 -184 71 -69 235 -188 308 -222 14 -7
3 -17 -54 -51 -40 -25 -79 -41 -89 -39 -10 3 -17 2 -16 -2 1 -3 -2 -8 -8 -9
-5 -2 -21 -10 -35 -17 -14 -8 -41 -20 -60 -29 -19 -8 -75 -33 -124 -55 -49
-23 -90 -40 -92 -38 -7 7 71 78 101 92 51 24 118 46 160 52 22 3 42 7 44 9 10
10 -80 2 -139 -11 -99 -23 -99 -23 -143 -49 -55 -32 -92 -72 -108 -118 -7 -21
-17 -38 -22 -38 -5 0 -26 -10 -46 -22 -29 -19 -51 -23 -121 -24 -105 -1 -148
-8 -211 -35 -93 -40 -119 -118 -66 -197 15 -23 27 -44 27 -46 0 -2 -21 -18
-47 -35 -175 -113 -296 -218 -305 -265 -4 -19 -4 -60 0 -175 2 -39 4 -42 19
-30 9 8 14 9 11 3 -25 -40 -26 -361 -3 -769 3 -44 7 -125 10 -180 3 -55 7
-137 10 -182 4 -53 2 -83 -5 -83 -5 0 -10 4 -10 9 0 10 -106 120 -155 161 -42
35 -112 64 -148 62 -69 -6 -204 -114 -269 -217 -64 -102 -74 -217 -31 -360 23
-75 125 -292 179 -380 20 -33 60 -113 127 -255 26 -56 108 -170 158 -218 95
-93 149 -102 230 -37 24 19 44 33 45 32 1 -1 4 -51 8 -112 13 -207 23 -291 47
-395 35 -149 89 -222 322 -434 l87 -80 -5 -120 c-3 -67 -8 -143 -10 -171 -2
-27 -7 -95 -10 -150 -4 -55 -8 -116 -10 -135 -2 -19 -7 -79 -10 -133 -4 -54
-8 -106 -10 -115 -2 -9 -4 -34 -4 -54 -1 -37 -2 -37 -21 -21 -25 21 -33 23
-165 28 -269 11 -442 -96 -533 -330 -23 -58 -38 -137 -25 -134 18 5 104 -14
96 -21 -4 -4 -53 -24 -108 -45 -197 -73 -328 -123 -800 -305 -536 -208 -832
-331 -957 -397 l-66 -36 -21 -106 c-11 -58 -36 -172 -54 -254 l-33 -147 3863
0 c2660 0 3863 3 3863 10 0 6 -11 63 -26 128 -28 130 -60 280 -69 330 -5 25
-17 38 -52 59 -123 72 -557 251 -1232 509 -179 68 -360 137 -401 153 -41 16
-115 44 -164 62 l-89 34 41 8 c23 4 42 13 42 19 0 17 -21 90 -36 125 -8 17
-14 34 -14 37 0 18 -78 126 -118 163 -51 47 -152 102 -203 109 -19 3 -47 9
-64 13 -37 10 -199 5 -255 -8 -37 -8 -40 -7 -40 13 0 11 -5 73 -11 136 -6 63
-12 142 -14 175 -2 33 -7 101 -10 150 -11 159 -14 198 -20 311 l-6 111 62 54
c107 93 235 226 275 286 52 78 71 138 94 288 14 101 34 331 32 377 -1 16 1 16
24 2 13 -9 24 -20 24 -24 0 -9 74 -40 96 -40 51 0 143 78 217 183 49 69 79
123 133 242 20 44 44 91 54 105 26 37 132 245 163 320 53 129 72 274 44 350
-50 137 -170 264 -287 305 -46 16 -90 4 -154 -42 -68 -49 -69 -49 -136 -126
l-60 -68 0 51 c0 32 4 49 10 45 6 -4 10 14 11 47 1 29 2 67 4 83 1 17 6 86 9
155 28 527 26 813 -4 870 -8 15 -5 34 10 79 11 33 20 67 20 76 0 15 -135 120
-243 189 -33 20 -68 46 -80 56 -11 11 -26 20 -33 20 -7 0 -14 3 -16 8 -1 4
-38 30 -80 57 l-78 50 1 72 c1 85 -15 140 -50 171 -80 71 -348 164 -623 216
-52 10 -104 29 -155 57 -43 23 -79 43 -81 44 -1 1 25 21 58 44 80 56 170 148
220 224 22 34 40 57 40 52 0 -6 9 4 20 20 11 17 20 37 20 45 -1 8 -7 0 -16
-19 -18 -44 -27 -36 -11 10 7 20 17 34 23 32 15 -5 11 42 -8 87 -26 62 -132
150 -214 177 -27 10 -35 8 -57 -13 l-26 -24 -53 24 c-103 46 -195 67 -303 71
-57 2 -105 2 -107 0z m727 -235 c12 0 48 -61 40 -68 -2 -2 -22 11 -44 29 -41
33 -54 56 -25 45 9 -3 21 -6 29 -6z m131 -666 c79 -13 205 -77 271 -137 61
-55 76 -82 90 -160 l6 -29 -59 33 c-62 35 -83 54 -84 79 -2 41 -82 101 -240
179 -111 56 -110 57 16 35z m-1866 -198 c0 -2 -13 -18 -30 -36 -16 -18 -30
-38 -30 -45 0 -16 -129 -98 -145 -91 -20 7 -39 90 -26 115 20 36 78 58 158 60
40 1 73 0 73 -3z"/>
</g>
</svg>
